<svg width="16" height="16" xmlns="http://www.w3.org/2000/svg" fill="context-fill" fill-opacity="context-fill-opacity">
  <path d="M2.6938.9251c-.9726,0-1.7688.7963-1.7688,1.7689v1.3265c0,.2444.1981.4425.4425.4425s.4425-.1981.4425-.4425v-1.3265c0-.4934.3915-.884.8839-.884h1.3264c.2444,0,.4425-.1981.4425-.4425s-.1981-.4425-.4425-.4425h-1.3273.001-.0002ZM11.9797.9251c-.2444,0-.4425.1981-.4425.4425s.1981.4425.4425.4425h1.3264c.4934,0,.8839.3915.8839.884v1.3265c0,.2444.1981.4425.4425.4425s.4425-.1981.4425-.4425v-1.3265c0-.9727-.7962-1.7689-1.7688-1.7689h-1.3273.001-.0002ZM4.9052,2.6941c-1.2198.0038-2.2076.9916-2.2113,2.2114v6.1909c0,1.2161.9943,2.2114,2.2113,2.2114h6.1905c1.216,0,2.2113-.9944,2.2113-2.2114v-6.1909c0-1.2161-.9943-2.2114-2.2113-2.2114,0,0-6.1905,0-6.1905,0ZM4.9052,3.5781h2.2113v1.3265c0,.7273.5981,1.3265,1.3264,1.3265h3.9801v4.8635c0,.7378-.5896,1.3265-1.3264,1.3265h-6.1905c-.7378,0-1.3264-.5896-1.3264-1.3265v-6.1909c0-.7378.5896-1.3265,1.3264-1.3265h-.001v.001h0ZM7.9995,3.5781h3.0943c.7378,0,1.3264.5896,1.3264,1.3265v.4425h-3.9801c-.2405.0029-.4387-.1888-.4425-.4293v-1.3378h.0019s0-.0019,0-.0019ZM1.3675,11.5371c-.2444,0-.4425.1981-.4425.4425v1.3265c0,.9727.7962,1.7689,1.7688,1.7689h1.3264c.2444,0,.4425-.1981.4425-.4425s-.1981-.4425-.4425-.4425h-1.3264c-.4934,0-.8839-.3915-.8839-.884v-1.3265c0-.2444-.1981-.4425-.4425-.4425h.001-.001,0ZM14.6325,11.5371c-.2444,0-.4425.1981-.4425.4425v1.3265c0,.4934-.3915.884-.8839.884h-1.3264c-.2444,0-.4425.1981-.4425.4425s.1981.4425.4425.4425h1.3264c.9726,0,1.7688-.7963,1.7688-1.7689v-1.3265c0-.2444-.1981-.4425-.4425-.4425h.001-.001,0Z"/>
</svg>